<svg width="44" height="44" viewBox="0 0 44 44" fill="none" xmlns="http://www.w3.org/2000/svg">
<path fill-rule="evenodd" clip-rule="evenodd" d="M21.4061 3.67567L22.0001 3.6665L22.5941 3.67567C32.5983 3.99998 40.4932 12.2883 40.331 22.2964C40.1689 32.3045 32.0095 40.3327 22.0001 40.3327C11.9907 40.3327 3.83136 32.3045 3.66919 22.2964C3.50702 12.2883 11.402 3.99998 21.4061 3.67567ZM23.3728 13.456C22.7335 12.7309 21.641 12.6269 20.8763 13.2182L20.7039 13.3703L13.3706 20.7037C13.3064 20.7677 13.2469 20.8363 13.1928 20.909L13.0626 21.1125L12.9636 21.3197L12.8994 21.5122L12.8463 21.7835L12.8335 21.9998L12.8389 22.1373L12.8701 22.3683L12.9251 22.5737L13.0058 22.7753L13.1194 22.9825L13.2368 23.1457L13.3706 23.296L20.7039 30.6293C21.3887 31.3117 22.4856 31.3452 23.2106 30.7059C23.9357 30.0665 24.0398 28.9741 23.4484 28.2093L23.2963 28.037L19.0961 23.8332H29.3334C30.3035 23.8321 31.1048 23.0756 31.1616 22.1073C31.2184 21.1389 30.5112 20.2939 29.5479 20.1793L29.3334 20.1665H19.0961L23.2963 15.9627C23.9787 15.278 24.0122 14.1811 23.3728 13.456Z" fill="#03A5CA"/>
</svg>
