<svg width="44" height="44" viewBox="0 0 44 44" fill="none" xmlns="http://www.w3.org/2000/svg">
<path fill-rule="evenodd" clip-rule="evenodd" d="M22.5944 3.67567L22.0004 3.6665L21.4064 3.67567C11.4022 3.99998 3.50727 12.2883 3.66945 22.2964C3.83162 32.3045 11.991 40.3327 22.0004 40.3327C32.0098 40.3327 40.1691 32.3045 40.3313 22.2964C40.4935 12.2883 32.5985 3.99998 22.5944 3.67567ZM20.6277 13.456C21.267 12.7309 22.3595 12.6269 23.1242 13.2182L23.2965 13.3703L30.6299 20.7037C30.6941 20.7677 30.7535 20.8363 30.8077 20.909L30.9379 21.1125L31.0369 21.3197L31.101 21.5122L31.1542 21.7835L31.167 21.9998L31.1615 22.1373L31.1304 22.3683L31.0754 22.5737L30.9947 22.7753L30.881 22.9825L30.7637 23.1457L30.6299 23.296L23.2965 30.6293C22.6118 31.3117 21.5149 31.3452 20.7899 30.7059C20.0648 30.0665 19.9607 28.9741 20.552 28.2093L20.7042 28.037L24.9044 23.8332H14.667C13.697 23.8321 12.8957 23.0756 12.8389 22.1073C12.782 21.1389 13.4893 20.2939 14.4525 20.1793L14.667 20.1665H24.9044L20.7042 15.9627C20.0218 15.278 19.9883 14.1811 20.6277 13.456Z" fill="#03A5CA"/>
</svg>
